<svg width="26" height="26" viewBox="0 0 26 26" fill="none" xmlns="http://www.w3.org/2000/svg">
<path d="M7.46595 11.9662C8.97395 14.9298 11.4035 17.3489 14.3671 18.8674L16.671 16.5635C16.9538 16.2808 17.3727 16.1865 17.7392 16.3122C18.9121 16.6996 20.1792 16.9091 21.4778 16.9091C22.0538 16.9091 22.525 17.3803 22.525 17.9563V21.6111C22.525 22.1871 22.0538 22.6583 21.4778 22.6583C11.6444 22.6583 3.675 14.689 3.675 4.85556C3.675 4.27958 4.14625 3.80833 4.72222 3.80833H8.3875C8.96347 3.80833 9.43472 4.27958 9.43472 4.85556C9.43472 6.16458 9.64417 7.42125 10.0316 8.59414C10.1468 8.96067 10.0631 9.36908 9.76983 9.66231L7.46595 11.9662Z" fill="white"/>
</svg>
