<svg width="22" height="24" viewBox="0 0 22 24" fill="none" xmlns="http://www.w3.org/2000/svg">
<path d="M19.5158 7.73028L18.4686 8.7775C20.3536 10.6625 20.3536 13.5947 18.4686 15.5844L19.5158 16.6317C22.1339 14.2231 22.1339 10.2436 19.5158 7.73028ZM17.3167 9.92945L16.2694 10.9767C16.7931 11.7097 16.7931 12.6522 16.2694 13.3853L17.3167 14.4325C18.5733 13.1758 18.5733 11.2908 17.3167 9.92945ZM13.1278 0.71389H2.65556C1.50361 0.71389 0.561111 1.65639 0.561111 2.80833V21.6583C0.561111 22.8103 1.50361 23.7528 2.65556 23.7528H13.1278C14.2797 23.7528 15.2222 22.8103 15.2222 21.6583V2.80833C15.2222 1.65639 14.2797 0.71389 13.1278 0.71389ZM13.1278 20.6111H2.65556V3.85556H13.1278V20.6111Z" fill="white"/>
</svg>
