<svg width="22" height="22" viewBox="0 0 22 22" fill="none" xmlns="http://www.w3.org/2000/svg">
<path d="M10.8026 0.400002H10.7974C5.06311 0.400002 0.400009 5.0644 0.400009 10.8C0.400009 13.075 1.13321 15.1836 2.37991 16.8957L1.08381 20.7593L5.08131 19.4814C6.72581 20.5708 8.68751 21.2 10.8026 21.2C16.5369 21.2 21.2 16.5343 21.2 10.8C21.2 5.0657 16.5369 0.400002 10.8026 0.400002ZM16.8541 15.0861C16.6032 15.7946 15.6074 16.3822 14.8131 16.5538C14.2697 16.6695 13.5599 16.7618 11.1705 15.7712C8.11421 14.505 6.14601 11.3993 5.99261 11.1978C5.84571 10.9963 4.75761 9.5533 4.75761 8.0609C4.75761 6.5685 5.51551 5.8418 5.82101 5.5298C6.07191 5.2737 6.48661 5.1567 6.88441 5.1567C7.01311 5.1567 7.12881 5.1632 7.23281 5.1684C7.53831 5.1814 7.69171 5.1996 7.89321 5.6819C8.14411 6.2864 8.75511 7.7788 8.82791 7.9322C8.90201 8.0856 8.97611 8.2936 8.87211 8.4951C8.77461 8.7031 8.68881 8.7954 8.53541 8.9722C8.38201 9.149 8.23641 9.2842 8.08301 9.474C7.94261 9.6391 7.78401 9.8159 7.96081 10.1214C8.13761 10.4204 8.74861 11.4175 9.64821 12.2183C10.8091 13.2518 11.7503 13.582 12.087 13.7224C12.3379 13.8264 12.6369 13.8017 12.8202 13.6067C13.0529 13.3558 13.3402 12.9398 13.6327 12.5303C13.8407 12.2365 14.1033 12.2001 14.3789 12.3041C14.6597 12.4016 16.1456 13.1361 16.4511 13.2882C16.7566 13.4416 16.9581 13.5144 17.0322 13.6431C17.105 13.7718 17.105 14.3763 16.8541 15.0861Z" fill="white"/>
</svg>
