<svg width="309" height="120" viewBox="0 0 309 120" fill="none" xmlns="http://www.w3.org/2000/svg">
<path fill-rule="evenodd" clip-rule="evenodd" d="M22.423 92.232C11.3007 99.5506 3.47147 109.246 0 120V59.6954V36.8314V0H53.0232H108.191H309V45.0121C308.347 51.8777 305.187 58.4791 299.861 64.1006C288.958 75.5148 272.896 78.4361 268.78 79.0961H62.1623C47.4207 80.3268 33.5453 84.9133 22.423 92.232Z" fill="#39ABFE"/>
<path d="M33.8872 38C33.4073 38 33.0159 37.8611 32.7128 37.5833C32.435 37.3054 32.296 36.9392 32.296 36.4846V12.8062C32.296 12.3515 32.435 11.9853 32.7128 11.7075C33.0159 11.4296 33.4073 11.2907 33.8872 11.2907H48.0564C48.511 11.2907 48.8646 11.4044 49.1172 11.6317C49.3698 11.859 49.496 12.1747 49.496 12.5788C49.496 12.9829 49.3698 13.2987 49.1172 13.526C48.8646 13.7533 48.511 13.8669 48.0564 13.8669H35.3648V23.1489H47.2987C47.7533 23.1489 48.1069 23.2625 48.3595 23.4899C48.6121 23.7172 48.7383 24.0329 48.7383 24.437C48.7383 24.8411 48.6121 25.1568 48.3595 25.3841C48.1069 25.6114 47.7533 25.7251 47.2987 25.7251H35.3648V35.4238H48.0564C48.511 35.4238 48.8646 35.5374 49.1172 35.7648C49.3698 35.9668 49.496 36.2825 49.496 36.7119C49.496 37.116 49.3698 37.4317 49.1172 37.659C48.8646 37.8863 48.511 38 48.0564 38H33.8872ZM60.1052 38.2652C58.9433 38.2652 57.832 38.1263 56.7712 37.8485C55.7357 37.5706 54.8138 37.1791 54.0056 36.674C53.551 36.3709 53.2226 36.0931 53.0206 35.8405C52.8438 35.5627 52.7554 35.2344 52.7554 34.8555C52.7554 34.5272 52.8438 34.262 53.0206 34.0599C53.2226 33.8326 53.4752 33.7189 53.7783 33.7189C54.0814 33.7189 54.5234 33.9084 55.1043 34.2872C55.862 34.7418 56.6071 35.1081 57.3395 35.3859C58.0972 35.6385 59.0317 35.7648 60.1431 35.7648C61.5069 35.7648 62.5677 35.5248 63.3254 35.0449C64.0831 34.565 64.462 33.8705 64.462 32.9612C64.462 32.4056 64.3231 31.9636 64.0453 31.6352C63.7674 31.2816 63.2875 30.9786 62.6056 30.726C61.9237 30.4482 60.926 30.1703 59.6127 29.8925C57.39 29.4126 55.7989 28.7686 54.8391 27.9603C53.8793 27.1521 53.3994 26.0534 53.3994 24.6643C53.3994 23.5783 53.7025 22.6185 54.3087 21.785C54.9149 20.9515 55.7483 20.2948 56.8091 19.815C57.8952 19.3351 59.1201 19.0951 60.484 19.0951C61.469 19.0951 62.4162 19.2341 63.3254 19.5119C64.2599 19.7645 65.0808 20.1307 65.788 20.6106C66.6467 21.2167 67.0761 21.8482 67.0761 22.5048C67.0761 22.8332 66.9751 23.111 66.773 23.3383C66.571 23.5656 66.331 23.6793 66.0532 23.6793C65.7501 23.6793 65.2955 23.4646 64.6893 23.0352C63.9821 22.5806 63.3128 22.227 62.6814 21.9744C62.05 21.7219 61.267 21.5956 60.3325 21.5956C59.1454 21.5956 58.1856 21.8608 57.4532 22.3912C56.746 22.9216 56.3924 23.6288 56.3924 24.5128C56.3924 25.0684 56.5187 25.523 56.7712 25.8766C57.0491 26.205 57.4911 26.5081 58.0972 26.7859C58.7287 27.0385 59.6253 27.291 60.7871 27.5436C62.5046 27.9225 63.8306 28.3392 64.7651 28.7938C65.7248 29.2485 66.4068 29.8041 66.8109 30.4608C67.215 31.1175 67.4171 31.951 67.4171 32.9612C67.4171 34.5524 66.7478 35.8405 65.4091 36.8255C64.0705 37.7853 62.3025 38.2652 60.1052 38.2652ZM79.7097 38.2652C77.9922 38.2652 76.4642 37.8737 75.1256 37.0907C73.8122 36.3078 72.7893 35.1965 72.0569 33.7568C71.3497 32.3172 70.9961 30.6502 70.9961 28.7559C70.9961 26.8617 71.3623 25.1821 72.0947 23.7172C72.8525 22.2523 73.9006 21.1157 75.2392 20.3075C76.5779 19.4993 78.1185 19.0951 79.8613 19.0951C80.821 19.0951 81.7682 19.2341 82.7027 19.5119C83.6624 19.7645 84.4959 20.1433 85.2031 20.6484C85.6577 20.9515 85.9735 21.2546 86.1503 21.5577C86.3523 21.8355 86.4533 22.1512 86.4533 22.5048C86.4533 22.8584 86.3523 23.1489 86.1503 23.3762C85.9735 23.6035 85.7335 23.7172 85.4304 23.7172C85.2536 23.7172 85.0642 23.6667 84.8622 23.5656C84.6601 23.4646 84.4833 23.3636 84.3318 23.2625C84.2055 23.1615 84.1171 23.0984 84.0666 23.0731C83.4099 22.6437 82.7784 22.3028 82.1723 22.0502C81.5914 21.7976 80.8715 21.6714 80.0128 21.6714C78.169 21.6714 76.7294 22.3028 75.6939 23.5656C74.6836 24.8032 74.1784 26.5333 74.1784 28.7559C74.1784 30.9786 74.6836 32.696 75.6939 33.9084C76.7294 35.1207 78.169 35.7269 80.0128 35.7269C80.8715 35.7269 81.604 35.6006 82.2102 35.348C82.8416 35.0954 83.473 34.7545 84.1044 34.3251C84.3823 34.1483 84.6475 33.9968 84.9 33.8705C85.1526 33.7442 85.3673 33.6811 85.5441 33.6811C85.8219 33.6811 86.0492 33.7947 86.226 34.022C86.4281 34.2493 86.5291 34.5398 86.5291 34.8934C86.5291 35.2217 86.4407 35.5248 86.2639 35.8026C86.0871 36.0552 85.7588 36.3457 85.2789 36.674C84.5717 37.1539 83.713 37.5454 82.7027 37.8485C81.7177 38.1263 80.72 38.2652 79.7097 38.2652ZM97.8764 38.2652C96.1337 38.2652 94.593 37.8737 93.2544 37.0907C91.941 36.3078 90.9181 35.1965 90.1857 33.7568C89.4785 32.2919 89.1249 30.5997 89.1249 28.6802C89.1249 26.7606 89.4785 25.081 90.1857 23.6414C90.9181 22.1765 91.941 21.0526 93.2544 20.2696C94.593 19.4866 96.1337 19.0951 97.8764 19.0951C99.6191 19.0951 101.16 19.4866 102.498 20.2696C103.837 21.0526 104.86 22.1765 105.567 23.6414C106.3 25.081 106.666 26.7606 106.666 28.6802C106.666 30.5997 106.3 32.2919 105.567 33.7568C104.86 35.1965 103.837 36.3078 102.498 37.0907C101.16 37.8737 99.6191 38.2652 97.8764 38.2652ZM97.8764 35.7269C99.6949 35.7269 101.084 35.1333 102.044 33.9463C103.029 32.7339 103.521 30.9786 103.521 28.6802C103.521 26.4323 103.029 24.7022 102.044 23.4899C101.059 22.2523 99.6697 21.6335 97.8764 21.6335C96.0832 21.6335 94.694 22.2523 93.709 23.4899C92.724 24.7022 92.2315 26.4323 92.2315 28.6802C92.2315 30.9533 92.7114 32.696 93.6711 33.9084C94.6561 35.1207 96.0579 35.7269 97.8764 35.7269ZM112.791 38.1894C112.337 38.1894 111.958 38.0631 111.655 37.8106C111.377 37.5327 111.238 37.1539 111.238 36.674V12.6167C111.238 12.1368 111.377 11.7706 111.655 11.518C111.958 11.2402 112.337 11.1013 112.791 11.1013C113.221 11.1013 113.574 11.2402 113.852 11.518C114.155 11.7706 114.307 12.1368 114.307 12.6167V36.674C114.307 37.1539 114.155 37.5327 113.852 37.8106C113.574 38.0631 113.221 38.1894 112.791 38.1894ZM129.363 19.0951C131.535 19.0951 133.177 19.7139 134.289 20.9515C135.4 22.1639 135.955 23.9824 135.955 26.407V36.674C135.955 37.1539 135.817 37.5327 135.539 37.8106C135.261 38.0631 134.895 38.1894 134.44 38.1894C133.96 38.1894 133.581 38.0631 133.303 37.8106C133.026 37.5327 132.887 37.1539 132.887 36.674V26.4828C132.887 24.8411 132.546 23.6288 131.864 22.8458C131.207 22.0628 130.146 21.6714 128.681 21.6714C126.989 21.6714 125.638 22.1891 124.628 23.2247C123.617 24.2602 123.112 25.662 123.112 27.4299V36.674C123.112 37.1539 122.973 37.5327 122.696 37.8106C122.443 38.0631 122.077 38.1894 121.597 38.1894C121.117 38.1894 120.738 38.0631 120.46 37.8106C120.182 37.5327 120.044 37.1539 120.044 36.674V12.5788C120.044 12.1495 120.182 11.7959 120.46 11.518C120.763 11.2402 121.142 11.1013 121.597 11.1013C122.077 11.1013 122.443 11.2402 122.696 11.518C122.973 11.7706 123.112 12.1242 123.112 12.5788V22.5048C123.718 21.3935 124.565 20.5474 125.651 19.9665C126.737 19.3856 127.974 19.0951 129.363 19.0951ZM149.115 19.0951C153.737 19.0951 156.048 21.5198 156.048 26.3692V36.674C156.048 37.1286 155.909 37.4949 155.632 37.7727C155.379 38.0505 155.025 38.1894 154.571 38.1894C154.116 38.1894 153.75 38.0505 153.472 37.7727C153.194 37.4949 153.055 37.1286 153.055 36.674V34.8555C152.576 35.9416 151.843 36.7877 150.858 37.3938C149.873 37.9747 148.736 38.2652 147.448 38.2652C146.261 38.2652 145.163 38.0253 144.152 37.5454C143.167 37.0655 142.384 36.3962 141.803 35.5374C141.223 34.6787 140.932 33.7316 140.932 32.696C140.932 31.3069 141.286 30.2335 141.993 29.4758C142.7 28.6928 143.862 28.1371 145.478 27.8088C147.095 27.4552 149.343 27.2784 152.222 27.2784H153.055V26.0282C153.055 24.5128 152.74 23.4015 152.108 22.6943C151.502 21.9871 150.504 21.6335 149.115 21.6335C147.398 21.6335 145.655 22.1007 143.887 23.0352C143.205 23.4646 142.725 23.6793 142.448 23.6793C142.144 23.6793 141.892 23.5656 141.69 23.3383C141.488 23.111 141.387 22.8205 141.387 22.4669C141.387 22.1134 141.488 21.8103 141.69 21.5577C141.917 21.2799 142.271 21.002 142.751 20.7242C143.635 20.2191 144.632 19.8276 145.744 19.5498C146.88 19.2467 148.004 19.0951 149.115 19.0951ZM147.865 35.8405C149.381 35.8405 150.618 35.3354 151.578 34.3251C152.563 33.2896 153.055 31.9636 153.055 30.3471V29.2485H152.374C150.151 29.2485 148.459 29.3495 147.297 29.5515C146.135 29.7283 145.302 30.044 144.796 30.4987C144.317 30.928 144.077 31.5721 144.077 32.4308C144.077 33.4159 144.43 34.2367 145.137 34.8934C145.87 35.5248 146.779 35.8405 147.865 35.8405ZM185.716 33.7189C185.994 33.7189 186.234 33.8326 186.436 34.0599C186.638 34.2872 186.739 34.5777 186.739 34.9313C186.739 35.5627 186.297 36.1436 185.413 36.674C184.504 37.2044 183.544 37.6085 182.534 37.8863C181.523 38.1389 180.538 38.2652 179.579 38.2652C176.724 38.2652 174.464 37.4191 172.797 35.7269C171.155 34.0347 170.334 31.6984 170.334 28.7181C170.334 26.8238 170.701 25.1568 171.433 23.7172C172.166 22.2523 173.189 21.1157 174.502 20.3075C175.84 19.4993 177.356 19.0951 179.048 19.0951C181.448 19.0951 183.354 19.8781 184.769 21.444C186.183 23.01 186.89 25.1316 186.89 27.8088C186.89 28.3139 186.789 28.6802 186.587 28.9075C186.385 29.1348 186.057 29.2485 185.602 29.2485H173.403C173.631 33.5927 175.689 35.7648 179.579 35.7648C180.564 35.7648 181.41 35.6385 182.117 35.3859C182.824 35.1081 183.582 34.7418 184.39 34.2872C185.047 33.9084 185.489 33.7189 185.716 33.7189ZM179.086 21.4819C177.47 21.4819 176.169 21.9871 175.184 22.9973C174.224 24.0076 173.656 25.4346 173.479 27.2784H184.201C184.15 25.4094 183.683 23.9824 182.799 22.9973C181.915 21.9871 180.677 21.4819 179.086 21.4819Z" fill="white"/>
<path d="M208.908 38.2652C207.115 38.2652 205.536 37.8737 204.172 37.0907C202.834 36.3078 201.785 35.1965 201.028 33.7568C200.295 32.3172 199.929 30.6502 199.929 28.7559C199.929 26.8364 200.308 25.1442 201.066 23.6793C201.848 22.2144 202.935 21.0778 204.324 20.2696C205.713 19.4614 207.304 19.0573 209.097 19.0573C210.057 19.0573 211.017 19.1962 211.977 19.474C212.962 19.7518 213.833 20.1307 214.591 20.6106C215.399 21.1662 215.803 21.8103 215.803 22.5427C215.803 22.9721 215.689 23.3383 215.462 23.6414C215.235 23.9192 214.944 24.0581 214.591 24.0581C214.363 24.0581 214.136 24.0076 213.909 23.9066C213.681 23.7803 213.391 23.6035 213.037 23.3762C212.406 22.9721 211.812 22.669 211.257 22.4669C210.726 22.2396 210.082 22.126 209.325 22.126C207.607 22.126 206.268 22.7069 205.309 23.8687C204.374 25.0305 203.907 26.647 203.907 28.7181C203.907 30.7891 204.374 32.3929 205.309 33.5295C206.243 34.6408 207.569 35.1965 209.287 35.1965C210.044 35.1965 210.714 35.0828 211.295 34.8555C211.876 34.6282 212.469 34.3251 213.075 33.9463C213.353 33.7695 213.631 33.6179 213.909 33.4916C214.187 33.3653 214.439 33.3022 214.666 33.3022C215.02 33.3022 215.31 33.4537 215.538 33.7568C215.765 34.0347 215.879 34.3883 215.879 34.8176C215.879 35.1712 215.778 35.4996 215.576 35.8026C215.399 36.0805 215.083 36.3709 214.629 36.674C213.871 37.1791 212.987 37.5706 211.977 37.8485C210.966 38.1263 209.943 38.2652 208.908 38.2652ZM221.236 38.1894C220.68 38.1894 220.213 38.0379 219.834 37.7348C219.48 37.4317 219.304 36.9771 219.304 36.3709V12.9577C219.304 12.3515 219.48 11.8969 219.834 11.5938C220.213 11.2655 220.68 11.1013 221.236 11.1013C221.791 11.1013 222.246 11.2655 222.6 11.5938C222.953 11.8969 223.13 12.3515 223.13 12.9577V36.3709C223.13 36.9771 222.953 37.4317 222.6 37.7348C222.246 38.0379 221.791 38.1894 221.236 38.1894ZM230.411 38.1894C229.855 38.1894 229.388 38.0379 229.009 37.7348C228.656 37.4317 228.479 36.9771 228.479 36.3709V20.9894C228.479 20.3832 228.656 19.9286 229.009 19.6255C229.388 19.2972 229.855 19.133 230.411 19.133C230.967 19.133 231.421 19.2972 231.775 19.6255C232.129 19.9286 232.305 20.3832 232.305 20.9894V36.3709C232.305 36.9771 232.129 37.4317 231.775 37.7348C231.421 38.0379 230.967 38.1894 230.411 38.1894ZM230.411 15.4202C229.679 15.4202 229.098 15.2182 228.668 14.8141C228.239 14.41 228.024 13.8796 228.024 13.2229C228.024 12.5662 228.239 12.0484 228.668 11.6696C229.098 11.2655 229.679 11.0634 230.411 11.0634C231.118 11.0634 231.687 11.2655 232.116 11.6696C232.571 12.0484 232.798 12.5662 232.798 13.2229C232.798 13.8796 232.583 14.41 232.154 14.8141C231.724 15.2182 231.144 15.4202 230.411 15.4202ZM252.809 19.133C253.389 19.133 253.844 19.3098 254.172 19.6634C254.526 19.9918 254.703 20.4338 254.703 20.9894V43.1903C254.703 43.746 254.526 44.188 254.172 44.5163C253.819 44.8446 253.352 45.0088 252.771 45.0088C252.19 45.0088 251.722 44.8446 251.369 44.5163C251.041 44.2132 250.876 43.7965 250.876 43.2661V34.8934C250.321 35.9794 249.512 36.8129 248.452 37.3938C247.416 37.9747 246.204 38.2652 244.815 38.2652C243.198 38.2652 241.759 37.8737 240.496 37.0907C239.258 36.3078 238.298 35.1965 237.616 33.7568C236.934 32.3172 236.594 30.6502 236.594 28.7559C236.594 26.8364 236.934 25.1442 237.616 23.6793C238.324 22.2144 239.296 21.0778 240.534 20.2696C241.796 19.4614 243.223 19.0573 244.815 19.0573C246.204 19.0573 247.429 19.3603 248.49 19.9665C249.55 20.5727 250.359 21.4314 250.914 22.5427V20.9894C250.914 20.4338 251.078 19.9918 251.407 19.6634C251.76 19.3098 252.228 19.133 252.809 19.133ZM245.724 35.2344C247.391 35.2344 248.666 34.6661 249.55 33.5295C250.46 32.3929 250.914 30.7765 250.914 28.6802C250.914 26.5838 250.46 24.9674 249.55 23.8308C248.666 22.6943 247.391 22.126 245.724 22.126C244.082 22.126 242.794 22.7195 241.86 23.9066C240.925 25.0684 240.458 26.6849 240.458 28.7559C240.458 30.827 240.912 32.4308 241.822 33.5674C242.756 34.6787 244.057 35.2344 245.724 35.2344ZM274.359 19.133C274.939 19.133 275.394 19.2972 275.722 19.6255C276.076 19.9539 276.253 20.4085 276.253 20.9894V36.4088C276.253 36.9392 276.076 37.3686 275.722 37.6969C275.369 38.0253 274.902 38.1894 274.321 38.1894C273.79 38.1894 273.361 38.0379 273.033 37.7348C272.704 37.4065 272.54 36.9771 272.54 36.4467V35.007C271.959 36.0678 271.151 36.8761 270.115 37.4317C269.105 37.9874 267.969 38.2652 266.706 38.2652C262.21 38.2652 259.962 35.79 259.962 30.8396V20.9894C259.962 20.4085 260.126 19.9539 260.455 19.6255C260.808 19.2972 261.288 19.133 261.894 19.133C262.475 19.133 262.93 19.2972 263.258 19.6255C263.612 19.9539 263.788 20.4085 263.788 20.9894V30.8018C263.788 32.2919 264.092 33.3906 264.698 34.0978C265.304 34.805 266.238 35.1586 267.501 35.1586C268.991 35.1586 270.179 34.6787 271.063 33.7189C271.972 32.7592 272.426 31.4837 272.426 29.8925V20.9894C272.426 20.4338 272.603 19.9918 272.957 19.6634C273.31 19.3098 273.778 19.133 274.359 19.133ZM296.08 33.3401C296.433 33.3401 296.724 33.479 296.951 33.7568C297.178 34.0347 297.292 34.3883 297.292 34.8176C297.292 35.5501 296.837 36.1689 295.928 36.674C295.044 37.1791 294.072 37.5706 293.011 37.8485C291.975 38.1263 290.978 38.2652 290.018 38.2652C287.088 38.2652 284.777 37.4191 283.085 35.7269C281.393 34.0094 280.547 31.6731 280.547 28.7181C280.547 26.8238 280.913 25.1442 281.645 23.6793C282.403 22.2144 283.451 21.0778 284.79 20.2696C286.154 19.4614 287.694 19.0573 289.412 19.0573C291.887 19.0573 293.844 19.8529 295.284 21.444C296.724 23.0352 297.444 25.1821 297.444 27.8846C297.444 28.8949 296.989 29.4 296.08 29.4H284.373C284.626 33.3148 286.507 35.2722 290.018 35.2722C290.952 35.2722 291.761 35.146 292.443 34.8934C293.125 34.6408 293.844 34.3125 294.602 33.9084C294.678 33.8579 294.88 33.7568 295.208 33.6053C295.562 33.4285 295.852 33.3401 296.08 33.3401ZM289.488 21.8608C288.023 21.8608 286.848 22.328 285.964 23.2625C285.08 24.1971 284.55 25.5104 284.373 27.2026H294.147C294.072 25.4852 293.63 24.1718 292.822 23.2625C292.039 22.328 290.927 21.8608 289.488 21.8608Z" fill="#FFE602"/>
<path d="M34.0039 64.0466C33.3618 64.0466 32.7477 63.9698 32.1614 63.8162C31.5892 63.6627 31.0797 63.4464 30.6331 63.1672C30.3818 62.9997 30.2004 62.8462 30.0887 62.7066C29.991 62.5531 29.9422 62.3716 29.9422 62.1622C29.9422 61.9808 29.991 61.8342 30.0887 61.7226C30.2004 61.597 30.3399 61.5341 30.5074 61.5341C30.6749 61.5341 30.9192 61.6388 31.2402 61.8482C31.659 62.0994 32.0707 62.3018 32.4755 62.4554C32.8942 62.5949 33.4107 62.6647 34.0248 62.6647C34.7785 62.6647 35.3648 62.5321 35.7835 62.2669C36.2022 62.0017 36.4116 61.6179 36.4116 61.1154C36.4116 60.8083 36.3348 60.5641 36.1813 60.3826C36.0278 60.1872 35.7626 60.0197 35.3857 59.8801C35.0088 59.7266 34.4575 59.5731 33.7317 59.4195C32.5034 59.1543 31.6241 58.7984 31.0937 58.3518C30.5633 57.9051 30.2981 57.2979 30.2981 56.5303C30.2981 55.9301 30.4656 55.3997 30.8006 54.9391C31.1355 54.4785 31.5962 54.1156 32.1824 53.8504C32.7826 53.5852 33.4595 53.4526 34.2132 53.4526C34.7576 53.4526 35.281 53.5293 35.7835 53.6829C36.2999 53.8225 36.7536 54.0248 37.1444 54.29C37.6189 54.625 37.8562 54.974 37.8562 55.3369C37.8562 55.5183 37.8004 55.6719 37.6887 55.7975C37.5771 55.9231 37.4445 55.9859 37.2909 55.9859C37.1234 55.9859 36.8722 55.8673 36.5372 55.63C36.1464 55.3788 35.7765 55.1833 35.4276 55.0438C35.0786 54.9042 34.6459 54.8344 34.1295 54.8344C33.4735 54.8344 32.9431 54.981 32.5383 55.2741C32.1475 55.5672 31.9521 55.958 31.9521 56.4465C31.9521 56.7536 32.0219 57.0048 32.1614 57.2002C32.315 57.3817 32.5592 57.5492 32.8942 57.7027C33.2432 57.8423 33.7387 57.9819 34.3807 58.1215C35.3299 58.3308 36.0627 58.5611 36.5791 58.8124C37.1095 59.0636 37.4863 59.3707 37.7097 59.7336C37.933 60.0965 38.0447 60.5571 38.0447 61.1154C38.0447 61.9948 37.6748 62.7066 36.935 63.251C36.1953 63.7814 35.2182 64.0466 34.0039 64.0466ZM41.4881 64.0047C41.2369 64.0047 41.0275 63.9349 40.86 63.7953C40.7065 63.6418 40.6297 63.4324 40.6297 63.1672V54.3319C40.6297 54.0667 40.7065 53.8643 40.86 53.7247C41.0275 53.5712 41.2369 53.4944 41.4881 53.4944C41.7393 53.4944 41.9417 53.5712 42.0953 53.7247C42.2488 53.8643 42.3256 54.0667 42.3256 54.3319V63.1672C42.3256 63.4464 42.2488 63.6557 42.0953 63.7953C41.9417 63.9349 41.7393 64.0047 41.4881 64.0047ZM41.4881 51.2961C41.1531 51.2961 40.8809 51.1984 40.6716 51.003C40.4622 50.8076 40.3575 50.5493 40.3575 50.2283C40.3575 49.9212 40.4622 49.67 40.6716 49.4746C40.8809 49.2792 41.1531 49.1815 41.4881 49.1815C41.8231 49.1815 42.0953 49.2792 42.3046 49.4746C42.514 49.67 42.6187 49.9212 42.6187 50.2283C42.6187 50.5493 42.514 50.8076 42.3046 51.003C42.0953 51.1984 41.8231 51.2961 41.4881 51.2961ZM56.8435 53.4526C59.1047 53.4526 60.2353 54.7995 60.2353 57.4934V63.1672C60.2353 63.4324 60.1585 63.6418 60.005 63.7953C59.8515 63.9349 59.6491 64.0047 59.3978 64.0047C59.1466 64.0047 58.9372 63.9349 58.7697 63.7953C58.6162 63.6418 58.5394 63.4324 58.5394 63.1672V57.5352C58.5394 56.6001 58.3719 55.9231 58.0369 55.5044C57.7019 55.0856 57.1785 54.8763 56.4667 54.8763C55.6153 54.8763 54.9453 55.1624 54.4568 55.7347C53.9682 56.3069 53.724 57.0816 53.724 58.0586V63.1672C53.724 63.4324 53.6402 63.6418 53.4727 63.7953C53.3192 63.9349 53.1168 64.0047 52.8656 64.0047C52.6143 64.0047 52.4119 63.9349 52.2584 63.7953C52.1049 63.6418 52.0281 63.4324 52.0281 63.1672V57.5352C52.0281 56.6001 51.8606 55.9231 51.5256 55.5044C51.1906 55.0856 50.6602 54.8763 49.9344 54.8763C49.097 54.8763 48.427 55.1624 47.9245 55.7347C47.436 56.3069 47.1917 57.0816 47.1917 58.0586V63.1672C47.1917 63.4324 47.1149 63.6418 46.9614 63.7953C46.8079 63.9349 46.6055 64.0047 46.3542 64.0047C46.103 64.0047 45.8936 63.9349 45.7261 63.7953C45.5726 63.6418 45.4958 63.4324 45.4958 63.1672V54.3319C45.4958 54.0807 45.5726 53.8783 45.7261 53.7247C45.8936 53.5712 46.103 53.4944 46.3542 53.4944C46.5915 53.4944 46.7869 53.5712 46.9405 53.7247C47.094 53.8643 47.1708 54.0597 47.1708 54.311V55.3159C47.4779 54.7158 47.9036 54.2551 48.4479 53.9341C48.9923 53.6131 49.6204 53.4526 50.3322 53.4526C51.9234 53.4526 52.9633 54.1225 53.4518 55.4625C53.7449 54.8484 54.1916 54.3598 54.7917 53.9969C55.3919 53.634 56.0759 53.4526 56.8435 53.4526ZM68.4543 53.4526C69.3476 53.4526 70.1362 53.6759 70.8201 54.1225C71.504 54.5692 72.0344 55.1973 72.4113 56.0069C72.7882 56.8024 72.9766 57.7306 72.9766 58.7914C72.9766 59.8522 72.7882 60.7804 72.4113 61.576C72.0344 62.3577 71.504 62.9648 70.8201 63.3975C70.1501 63.8302 69.3615 64.0466 68.4543 64.0466C67.6587 64.0466 66.9608 63.8721 66.3606 63.5231C65.7744 63.1742 65.3277 62.6787 65.0206 62.0366V66.9568C65.0206 67.208 64.9439 67.4034 64.7903 67.543C64.6508 67.6965 64.4484 67.7733 64.1832 67.7733C63.918 67.7733 63.7086 67.6965 63.5551 67.543C63.4015 67.3894 63.3248 67.194 63.3248 66.9568V54.3319C63.3248 54.0807 63.4015 53.8783 63.5551 53.7247C63.7086 53.5712 63.918 53.4944 64.1832 53.4944C64.4484 53.4944 64.6508 53.5712 64.7903 53.7247C64.9439 53.8783 65.0206 54.0807 65.0206 54.3319V55.4625C65.3277 54.8204 65.7744 54.3249 66.3606 53.976C66.9608 53.627 67.6587 53.4526 68.4543 53.4526ZM68.1193 62.6438C69.1103 62.6438 69.878 62.3088 70.4223 61.6388C70.9667 60.9689 71.2388 60.0197 71.2388 58.7914C71.2388 57.5631 70.9667 56.607 70.4223 55.9231C69.878 55.2252 69.1103 54.8763 68.1193 54.8763C67.1283 54.8763 66.3606 55.2113 65.8162 55.8812C65.2858 56.5512 65.0206 57.5073 65.0206 58.7496C65.0206 59.9918 65.2858 60.9549 65.8162 61.6388C66.3606 62.3088 67.1283 62.6438 68.1193 62.6438ZM76.369 64.0047C76.1178 64.0047 75.9084 63.9349 75.7409 63.7953C75.5874 63.6418 75.5106 63.4324 75.5106 63.1672V49.8724C75.5106 49.6072 75.5874 49.4048 75.7409 49.2652C75.9084 49.1117 76.1178 49.0349 76.369 49.0349C76.6063 49.0349 76.8017 49.1117 76.9552 49.2652C77.1227 49.4048 77.2065 49.6072 77.2065 49.8724V63.1672C77.2065 63.4324 77.1227 63.6418 76.9552 63.7953C76.8017 63.9349 76.6063 64.0047 76.369 64.0047ZM88.2699 61.5341C88.4234 61.5341 88.556 61.597 88.6677 61.7226C88.7793 61.8482 88.8352 62.0087 88.8352 62.2041C88.8352 62.5531 88.5909 62.8741 88.1024 63.1672C87.5999 63.4603 87.0695 63.6836 86.5112 63.8372C85.9529 63.9768 85.4085 64.0466 84.8781 64.0466C83.3009 64.0466 82.0517 63.579 81.1305 62.6438C80.2232 61.7086 79.7696 60.4175 79.7696 58.7705C79.7696 57.7237 79.972 56.8024 80.3767 56.0069C80.7815 55.1973 81.3468 54.5692 82.0726 54.1225C82.8124 53.6759 83.6498 53.4526 84.585 53.4526C85.911 53.4526 86.9648 53.8853 87.7465 54.7506C88.5281 55.616 88.9189 56.7885 88.9189 58.268C88.9189 58.5472 88.8631 58.7496 88.7514 58.8752C88.6398 59.0008 88.4583 59.0636 88.2071 59.0636H81.4654C81.5911 61.4644 82.7286 62.6647 84.8781 62.6647C85.4225 62.6647 85.8901 62.5949 86.2809 62.4554C86.6717 62.3018 87.0904 62.0994 87.5371 61.8482C87.9 61.6388 88.1443 61.5341 88.2699 61.5341ZM84.606 54.7716C83.7127 54.7716 82.9938 55.0507 82.4495 55.6091C81.9191 56.1674 81.605 56.956 81.5073 57.9749H87.4324C87.4045 56.942 87.1463 56.1534 86.6578 55.6091C86.1692 55.0507 85.4853 54.7716 84.606 54.7716ZM94.8512 64.0466C94.2091 64.0466 93.595 63.9698 93.0088 63.8162C92.4365 63.6627 91.927 63.4464 91.4804 63.1672C91.2292 62.9997 91.0477 62.8462 90.936 62.7066C90.8383 62.5531 90.7895 62.3716 90.7895 62.1622C90.7895 61.9808 90.8383 61.8342 90.936 61.7226C91.0477 61.597 91.1873 61.5341 91.3548 61.5341C91.5223 61.5341 91.7665 61.6388 92.0876 61.8482C92.5063 62.0994 92.9181 62.3018 93.3228 62.4554C93.7416 62.5949 94.258 62.6647 94.8721 62.6647C95.6259 62.6647 96.2121 62.5321 96.6308 62.2669C97.0496 62.0017 97.2589 61.6179 97.2589 61.1154C97.2589 60.8083 97.1822 60.5641 97.0286 60.3826C96.8751 60.1872 96.6099 60.0197 96.233 59.8801C95.8562 59.7266 95.3048 59.5731 94.579 59.4195C93.3507 59.1543 92.4714 58.7984 91.941 58.3518C91.4106 57.9051 91.1454 57.2979 91.1454 56.5303C91.1454 55.9301 91.3129 55.3997 91.6479 54.9391C91.9829 54.4785 92.4435 54.1156 93.0297 53.8504C93.6299 53.5852 94.3069 53.4526 95.0606 53.4526C95.6049 53.4526 96.1283 53.5293 96.6308 53.6829C97.1473 53.8225 97.6009 54.0248 97.9917 54.29C98.4663 54.625 98.7036 54.974 98.7036 55.3369C98.7036 55.5183 98.6477 55.6719 98.5361 55.7975C98.4244 55.9231 98.2918 55.9859 98.1383 55.9859C97.9708 55.9859 97.7195 55.8673 97.3846 55.63C96.9937 55.3788 96.6238 55.1833 96.2749 55.0438C95.926 54.9042 95.4933 54.8344 94.9768 54.8344C94.3208 54.8344 93.7904 54.981 93.3856 55.2741C92.9948 55.5672 92.7994 55.958 92.7994 56.4465C92.7994 56.7536 92.8692 57.0048 93.0088 57.2002C93.1623 57.3817 93.4066 57.5492 93.7416 57.7027C94.0905 57.8423 94.586 57.9819 95.2281 58.1215C96.1772 58.3308 96.91 58.5611 97.4264 58.8124C97.9568 59.0636 98.3337 59.3707 98.557 59.7336C98.7803 60.0965 98.892 60.5571 98.892 61.1154C98.892 61.9948 98.5221 62.7066 97.7823 63.251C97.0426 63.7814 96.0655 64.0466 94.8512 64.0466ZM111.041 53.4526C113.595 53.4526 114.873 54.7925 114.873 57.4724V63.1672C114.873 63.4184 114.796 63.6208 114.642 63.7744C114.503 63.9279 114.307 64.0047 114.056 64.0047C113.805 64.0047 113.602 63.9279 113.449 63.7744C113.295 63.6208 113.219 63.4184 113.219 63.1672V62.1622C112.953 62.7624 112.549 63.23 112.004 63.565C111.46 63.886 110.832 64.0466 110.12 64.0466C109.464 64.0466 108.857 63.914 108.298 63.6488C107.754 63.3836 107.321 63.0137 107 62.5391C106.679 62.0645 106.519 61.5411 106.519 60.9689C106.519 60.2012 106.714 59.608 107.105 59.1892C107.496 58.7565 108.138 58.4495 109.031 58.268C109.925 58.0726 111.167 57.9749 112.758 57.9749H113.219V57.284C113.219 56.4465 113.044 55.8324 112.695 55.4416C112.36 55.0507 111.809 54.8553 111.041 54.8553C110.092 54.8553 109.129 55.1136 108.152 55.63C107.775 55.8673 107.51 55.9859 107.356 55.9859C107.189 55.9859 107.049 55.9231 106.938 55.7975C106.826 55.6719 106.77 55.5113 106.77 55.3159C106.77 55.1205 106.826 54.953 106.938 54.8135C107.063 54.6599 107.259 54.5064 107.524 54.3529C108.012 54.0737 108.564 53.8573 109.178 53.7038C109.806 53.5363 110.427 53.4526 111.041 53.4526ZM110.35 62.7066C111.188 62.7066 111.872 62.4274 112.402 61.8691C112.946 61.2969 113.219 60.5641 113.219 59.6708V59.0636H112.842C111.613 59.0636 110.678 59.1194 110.036 59.2311C109.394 59.3288 108.934 59.5033 108.654 59.7545C108.389 59.9918 108.257 60.3477 108.257 60.8223C108.257 61.3667 108.452 61.8203 108.843 62.1832C109.248 62.5321 109.75 62.7066 110.35 62.7066ZM121.411 64.0466C120.769 64.0466 120.154 63.9698 119.568 63.8162C118.996 63.6627 118.486 63.4464 118.04 63.1672C117.789 62.9997 117.607 62.8462 117.495 62.7066C117.398 62.5531 117.349 62.3716 117.349 62.1622C117.349 61.9808 117.398 61.8342 117.495 61.7226C117.607 61.597 117.747 61.5341 117.914 61.5341C118.082 61.5341 118.326 61.6388 118.647 61.8482C119.066 62.0994 119.477 62.3018 119.882 62.4554C120.301 62.5949 120.817 62.6647 121.432 62.6647C122.185 62.6647 122.771 62.5321 123.19 62.2669C123.609 62.0017 123.818 61.6179 123.818 61.1154C123.818 60.8083 123.742 60.5641 123.588 60.3826C123.434 60.1872 123.169 60.0197 122.792 59.8801C122.416 59.7266 121.864 59.5731 121.138 59.4195C119.91 59.1543 119.031 58.7984 118.5 58.3518C117.97 57.9051 117.705 57.2979 117.705 56.5303C117.705 55.9301 117.872 55.3997 118.207 54.9391C118.542 54.4785 119.003 54.1156 119.589 53.8504C120.189 53.5852 120.866 53.4526 121.62 53.4526C122.164 53.4526 122.688 53.5293 123.19 53.6829C123.707 53.8225 124.16 54.0248 124.551 54.29C125.026 54.625 125.263 54.974 125.263 55.3369C125.263 55.5183 125.207 55.6719 125.095 55.7975C124.984 55.9231 124.851 55.9859 124.698 55.9859C124.53 55.9859 124.279 55.8673 123.944 55.63C123.553 55.3788 123.183 55.1833 122.834 55.0438C122.485 54.9042 122.053 54.8344 121.536 54.8344C120.88 54.8344 120.35 54.981 119.945 55.2741C119.554 55.5672 119.359 55.958 119.359 56.4465C119.359 56.7536 119.429 57.0048 119.568 57.2002C119.722 57.3817 119.966 57.5492 120.301 57.7027C120.65 57.8423 121.145 57.9819 121.787 58.1215C122.737 58.3308 123.469 58.5611 123.986 58.8124C124.516 59.0636 124.893 59.3707 125.116 59.7336C125.34 60.0965 125.451 60.5571 125.451 61.1154C125.451 61.9948 125.081 62.7066 124.342 63.251C123.602 63.7814 122.625 64.0466 121.411 64.0466ZM131.47 64.0466C130.828 64.0466 130.214 63.9698 129.628 63.8162C129.055 63.6627 128.546 63.4464 128.099 63.1672C127.848 62.9997 127.667 62.8462 127.555 62.7066C127.457 62.5531 127.408 62.3716 127.408 62.1622C127.408 61.9808 127.457 61.8342 127.555 61.7226C127.667 61.597 127.806 61.5341 127.974 61.5341C128.141 61.5341 128.385 61.6388 128.706 61.8482C129.125 62.0994 129.537 62.3018 129.942 62.4554C130.36 62.5949 130.877 62.6647 131.491 62.6647C132.245 62.6647 132.831 62.5321 133.25 62.2669C133.668 62.0017 133.878 61.6179 133.878 61.1154C133.878 60.8083 133.801 60.5641 133.647 60.3826C133.494 60.1872 133.229 60.0197 132.852 59.8801C132.475 59.7266 131.924 59.5731 131.198 59.4195C129.97 59.1543 129.09 58.7984 128.56 58.3518C128.029 57.9051 127.764 57.2979 127.764 56.5303C127.764 55.9301 127.932 55.3997 128.267 54.9391C128.602 54.4785 129.062 54.1156 129.649 53.8504C130.249 53.5852 130.926 53.4526 131.679 53.4526C132.224 53.4526 132.747 53.5293 133.25 53.6829C133.766 53.8225 134.22 54.0248 134.611 54.29C135.085 54.625 135.322 54.974 135.322 55.3369C135.322 55.5183 135.267 55.6719 135.155 55.7975C135.043 55.9231 134.911 55.9859 134.757 55.9859C134.59 55.9859 134.338 55.8673 134.003 55.63C133.613 55.3788 133.243 55.1833 132.894 55.0438C132.545 54.9042 132.112 54.8344 131.596 54.8344C130.94 54.8344 130.409 54.981 130.004 55.2741C129.614 55.5672 129.418 55.958 129.418 56.4465C129.418 56.7536 129.488 57.0048 129.628 57.2002C129.781 57.3817 130.025 57.5492 130.36 57.7027C130.709 57.8423 131.205 57.9819 131.847 58.1215C132.796 58.3308 133.529 58.5611 134.045 58.8124C134.576 59.0636 134.952 59.3707 135.176 59.7336C135.399 60.0965 135.511 60.5571 135.511 61.1154C135.511 61.9948 135.141 62.7066 134.401 63.251C133.661 63.7814 132.684 64.0466 131.47 64.0466ZM138.954 64.0047C138.703 64.0047 138.494 63.9349 138.326 63.7953C138.173 63.6418 138.096 63.4324 138.096 63.1672V54.3319C138.096 54.0667 138.173 53.8643 138.326 53.7247C138.494 53.5712 138.703 53.4944 138.954 53.4944C139.205 53.4944 139.408 53.5712 139.561 53.7247C139.715 53.8643 139.792 54.0667 139.792 54.3319V63.1672C139.792 63.4464 139.715 63.6557 139.561 63.7953C139.408 63.9349 139.205 64.0047 138.954 64.0047ZM138.954 51.2961C138.619 51.2961 138.347 51.1984 138.138 51.003C137.928 50.8076 137.824 50.5493 137.824 50.2283C137.824 49.9212 137.928 49.67 138.138 49.4746C138.347 49.2792 138.619 49.1815 138.954 49.1815C139.289 49.1815 139.561 49.2792 139.771 49.4746C139.98 49.67 140.085 49.9212 140.085 50.2283C140.085 50.5493 139.98 50.8076 139.771 51.003C139.561 51.1984 139.289 51.2961 138.954 51.2961ZM154.31 53.4526C156.571 53.4526 157.701 54.7995 157.701 57.4934V63.1672C157.701 63.4324 157.625 63.6418 157.471 63.7953C157.318 63.9349 157.115 64.0047 156.864 64.0047C156.613 64.0047 156.403 63.9349 156.236 63.7953C156.082 63.6418 156.006 63.4324 156.006 63.1672V57.5352C156.006 56.6001 155.838 55.9231 155.503 55.5044C155.168 55.0856 154.645 54.8763 153.933 54.8763C153.081 54.8763 152.411 55.1624 151.923 55.7347C151.434 56.3069 151.19 57.0816 151.19 58.0586V63.1672C151.19 63.4324 151.106 63.6418 150.939 63.7953C150.785 63.9349 150.583 64.0047 150.332 64.0047C150.08 64.0047 149.878 63.9349 149.725 63.7953C149.571 63.6418 149.494 63.4324 149.494 63.1672V57.5352C149.494 56.6001 149.327 55.9231 148.992 55.5044C148.657 55.0856 148.126 54.8763 147.401 54.8763C146.563 54.8763 145.893 55.1624 145.391 55.7347C144.902 56.3069 144.658 57.0816 144.658 58.0586V63.1672C144.658 63.4324 144.581 63.6418 144.428 63.7953C144.274 63.9349 144.072 64.0047 143.82 64.0047C143.569 64.0047 143.36 63.9349 143.192 63.7953C143.039 63.6418 142.962 63.4324 142.962 63.1672V54.3319C142.962 54.0807 143.039 53.8783 143.192 53.7247C143.36 53.5712 143.569 53.4944 143.82 53.4944C144.058 53.4944 144.253 53.5712 144.407 53.7247C144.56 53.8643 144.637 54.0597 144.637 54.311V55.3159C144.944 54.7158 145.37 54.2551 145.914 53.9341C146.458 53.6131 147.087 53.4526 147.798 53.4526C149.39 53.4526 150.429 54.1225 150.918 55.4625C151.211 54.8484 151.658 54.3598 152.258 53.9969C152.858 53.634 153.542 53.4526 154.31 53.4526ZM161.607 60.1523C161.468 60.1523 161.349 60.1035 161.252 60.0058C161.154 59.8941 161.098 59.7475 161.084 59.5661L160.582 50.0818C160.554 49.7607 160.637 49.5095 160.833 49.328C161.028 49.1326 161.286 49.0349 161.607 49.0349C161.928 49.0349 162.187 49.1326 162.382 49.328C162.577 49.5095 162.661 49.7607 162.633 50.0818L162.131 59.5661C162.117 59.7615 162.061 59.9081 161.963 60.0058C161.866 60.1035 161.747 60.1523 161.607 60.1523ZM161.628 64.0047C161.293 64.0047 161.014 63.9 160.791 63.6906C160.568 63.4673 160.456 63.1812 160.456 62.8322C160.456 62.4833 160.568 62.1971 160.791 61.9738C161.014 61.7505 161.293 61.6388 161.628 61.6388C161.949 61.6388 162.215 61.7505 162.424 61.9738C162.647 62.1971 162.759 62.4833 162.759 62.8322C162.759 63.1812 162.647 63.4673 162.424 63.6906C162.215 63.9 161.949 64.0047 161.628 64.0047Z" fill="white"/>
</svg>
